<svg width="36" height="36" fill="none" xmlns="http://www.w3.org/2000/svg"><g clip-path="url(#a)"><path d="M18 0C8.059 0 0 8.059 0 18c0 8.441 5.812 15.525 13.652 17.47V23.5H9.94V18h3.712v-2.37c0-6.127 2.773-8.966 8.787-8.966 1.141 0 3.109.224 3.914.447v4.986c-.425-.045-1.163-.067-2.08-.067-2.95 0-4.091 1.118-4.091 4.025V18h5.88l-1.011 5.5h-4.87v12.368c8.913-1.076 15.82-8.665 15.82-17.868C36 8.059 27.94 0 18 0Z" fill="#fff"/></g><defs><clipPath id="a"><path fill="#fff" d="M0 0h36v36H0z"/></clipPath></defs></svg>