<svg width="36" height="36" fill="none" xmlns="http://www.w3.org/2000/svg"><g clip-path="url(#a)" fill="#fff"><path d="M18 3.241c4.81 0 5.379.022 7.27.106 1.758.077 2.707.373 3.34.619a5.566 5.566 0 0 1 2.067 1.343 5.535 5.535 0 0 1 1.343 2.067c.246.633.542 1.589.62 3.34.083 1.898.105 2.468.105 7.27 0 4.81-.022 5.379-.106 7.27-.077 1.758-.373 2.707-.619 3.34a5.566 5.566 0 0 1-1.343 2.067 5.536 5.536 0 0 1-2.067 1.343c-.633.246-1.589.542-3.34.619-1.898.084-2.468.105-7.27.105-4.81 0-5.379-.02-7.27-.105-1.758-.077-2.707-.373-3.34-.619a5.566 5.566 0 0 1-2.067-1.343 5.536 5.536 0 0 1-1.343-2.067c-.246-.633-.542-1.589-.62-3.34-.083-1.898-.105-2.468-.105-7.27 0-4.81.022-5.379.106-7.27.077-1.758.373-2.707.619-3.34a5.567 5.567 0 0 1 1.343-2.067A5.536 5.536 0 0 1 7.39 3.966c.633-.246 1.589-.542 3.34-.62 1.891-.083 2.46-.105 7.27-.105ZM18 0c-4.887 0-5.498.021-7.418.105C8.67.19 7.355.5 6.216.942c-1.189.464-2.194 1.076-3.193 2.081-1.005.999-1.617 2.004-2.08 3.186C.498 7.355.19 8.663.104 10.575.021 12.502 0 13.113 0 18c0 4.887.021 5.498.105 7.418.085 1.913.394 3.227.837 4.366.464 1.189 1.076 2.194 2.081 3.193A8.8 8.8 0 0 0 6.21 35.05c1.146.443 2.454.752 4.366.837 1.92.084 2.531.105 7.418.105 4.887 0 5.498-.021 7.418-.105 1.912-.085 3.227-.394 4.366-.837a8.8 8.8 0 0 0 3.185-2.074 8.799 8.799 0 0 0 2.075-3.186c.443-1.146.752-2.454.836-4.366.085-1.92.106-2.531.106-7.418 0-4.887-.021-5.498-.106-7.418-.084-1.912-.393-3.227-.836-4.366a8.43 8.43 0 0 0-2.06-3.2A8.799 8.799 0 0 0 29.79.95C28.645.506 27.337.197 25.425.113 23.498.02 22.887 0 18 0Z"/><path d="M18 8.754c-5.105 0-9.246 4.141-9.246 9.246s4.141 9.246 9.246 9.246 9.246-4.141 9.246-9.246S23.105 8.754 18 8.754Zm0 15.244a5.999 5.999 0 0 1 0-11.996 5.999 5.999 0 0 1 0 11.996ZM29.77 8.388a2.159 2.159 0 1 1-2.158-2.158c1.188 0 2.158.97 2.158 2.158Z"/></g><defs><clipPath id="a"><path fill="#fff" d="M0 0h36v36H0z"/></clipPath></defs></svg>