<svg width="163" height="49" fill="none" xmlns="http://www.w3.org/2000/svg"><path fill-rule="evenodd" clip-rule="evenodd" d="M16.693 28.576c-4.407 0-7.98-3.584-7.98-8.004a8.002 8.002 0 0 1 3.458-6.596l.002-.001 15.568-10.81a1.647 1.647 0 0 0 1.004-1.518C28.745.737 28.01 0 27.103 0H2.275A2.278 2.278 0 0 0 0 2.282v44.437a2.278 2.278 0 0 0 3.376 1.996l.315-.211 22.41-15.045 4.225-2.837h.001l.005-.004a3.827 3.827 0 0 0 1.696-3.183 3.821 3.821 0 0 0-3.815-3.827 3.79 3.79 0 0 0-1.8.452l-.252.148-4.29 2.524-.305.178a7.933 7.933 0 0 1-4.873 1.666Z" fill="#fff"/><path fill-rule="evenodd" clip-rule="evenodd" d="M13.444 20.315a3.821 3.821 0 0 0 3.816 3.827c.566 0 1.103-.124 1.586-.346l.78-.479 5.452-3.35a7.927 7.927 0 0 1 4.765-1.584c4.407 0 7.98 3.583 7.98 8.004a7.996 7.996 0 0 1-2.801 6.09C29.273 37.4 20.09 43.137 13.658 47.728a.665.665 0 0 0 .34 1.235l11.805-.14c6.514-.082 11.779-2.17 15.794-6.265 6.258-6.071 9.129-13.054 8.612-20.95-.723-6.613-4.65-13.049-11.778-19.058-.282-.26-.56-.452-.956-.452-.224 0-.432.068-.604.186l-.002.001-16.421 11.222-5.25 3.586a3.827 3.827 0 0 0-1.754 3.221Z" fill="#fff"/><path d="M71.276 19.452h4.797c-.07-4.225-3.534-7.144-8.803-7.144-5.187 0-8.986 2.87-8.96 7.182-.01 3.496 2.445 5.502 6.445 6.464l2.575.647c2.575.626 4.005 1.365 4.016 2.963-.01 1.74-1.648 2.92-4.19 2.92-2.601 0-4.471-1.202-4.634-3.578h-4.834c.124 5.133 3.788 7.786 9.523 7.786 5.778 0 9.17-2.767 9.181-7.111-.01-3.953-2.975-6.052-7.09-6.976l-2.124-.51c-2.054-.474-3.778-1.24-3.74-2.942 0-1.528 1.35-2.653 3.8-2.653 2.39 0 3.853 1.087 4.038 2.952ZM75.773 12.629l8.624 15.337v8.389h4.965v-8.389l8.629-15.337h-5.6L87 22.849h-.234l-5.393-10.22h-5.599ZM110.592 19.452h4.797c-.071-4.225-3.534-7.144-8.802-7.144-5.187 0-8.987 2.87-8.96 7.182-.01 3.496 2.445 5.502 6.445 6.464l2.574.647c2.575.626 4.006 1.365 4.017 2.963-.011 1.74-1.648 2.92-4.19 2.92-2.602 0-4.472-1.202-4.634-3.578h-4.835c.124 5.133 3.789 7.786 9.523 7.786 5.778 0 9.171-2.767 9.182-7.111-.011-3.953-2.976-6.052-7.09-6.976l-2.124-.51c-2.055-.474-3.778-1.24-3.74-2.942 0-1.528 1.349-2.653 3.799-2.653 2.39 0 3.854 1.087 4.038 2.952ZM127.19 36.355c7.208 0 11.572-4.47 11.572-11.885 0-7.389-4.364-11.841-11.502-11.841h-8.455v23.726h8.385Zm-3.383-4.295V16.93h3.187c4.434 0 6.781 2.266 6.781 7.54 0 5.296-2.347 7.59-6.791 7.59h-3.177ZM163.002 20.936c-.656-5.48-4.791-8.628-10.266-8.628-6.244 0-11.013 4.425-11.013 12.184 0 7.736 4.688 12.19 11.013 12.19 6.065 0 9.724-4.046 10.266-8.412l-5.057-.021c-.471 2.533-2.461 3.996-5.127 3.996-3.588 0-6.028-2.68-6.028-7.753 0-4.937 2.402-7.748 6.066-7.748 2.737 0 4.71 1.588 5.089 4.192h5.057Z" fill="#fff"/></svg>