<svg width="36" height="36" fill="none" xmlns="http://www.w3.org/2000/svg"><g clip-path="url(#a)"><path fill-rule="evenodd" clip-rule="evenodd" d="M36 18c0 9.941-8.059 18-18 18S0 27.941 0 18 8.059 0 18 0s18 8.059 18 18Zm-17.355-4.712c-1.75.729-5.25 2.236-10.497 4.522-.852.339-1.299.67-1.34.995-.068.547.618.763 1.552 1.057.127.04.259.081.394.125.919.299 2.155.648 2.798.662.583.013 1.234-.228 1.952-.721 4.903-3.31 7.434-4.982 7.592-5.018.113-.026.268-.058.373.036.105.093.095.27.084.318-.068.29-2.76 2.793-4.154 4.089-.435.403-.743.69-.806.755a15.91 15.91 0 0 1-.423.419c-.854.823-1.494 1.44.035 2.448.736.485 1.324.885 1.91 1.285.641.436 1.28.871 2.107 1.413.211.139.412.282.608.422.746.532 1.416 1.01 2.244.933.48-.044.978-.497 1.23-1.845.596-3.188 1.768-10.095 2.04-12.941a3.17 3.17 0 0 0-.03-.71c-.025-.14-.075-.339-.257-.487-.216-.175-.548-.211-.697-.209-.677.012-1.716.373-6.715 2.452Z" fill="#fff"/></g><defs><clipPath id="a"><path fill="#fff" d="M0 0h36v36H0z"/></clipPath></defs></svg>