<svg width="163" height="49" viewBox="0 0 163 49" fill="none" xmlns="http://www.w3.org/2000/svg">
<path fill-rule="evenodd" clip-rule="evenodd" d="M16.6932 28.5759C12.2862 28.5759 8.71365 24.9923 8.71365 20.5718C8.71365 17.8416 10.0764 15.4307 12.1568 13.9861C12.1617 13.9827 12.1666 13.9793 12.1714 13.976L12.173 13.9749L27.7409 3.16491C28.3307 2.91517 28.7446 2.3296 28.7446 1.64706C28.7446 0.73755 28.0096 0.000244141 27.1029 0.000244141H2.27463C1.01839 0.000244141 0 1.02177 0 2.28188V46.7186C0 47.9787 1.01839 49.0002 2.27463 49.0002C2.67435 49.0002 3.04997 48.8968 3.37624 48.7153L3.69144 48.5037L26.1013 33.4585L30.3261 30.6221C30.3264 30.6219 30.3267 30.6217 30.327 30.6215L30.3323 30.618C31.3549 29.9314 32.0282 28.7621 32.0282 27.4351C32.0282 25.3214 30.32 23.6078 28.2127 23.6078C27.5617 23.6078 26.9488 23.7714 26.4126 24.0597L26.1612 24.2076L21.8704 26.7316L21.5662 26.9105C21.0328 27.3237 20.4459 27.6706 19.8176 27.9391C18.858 28.3491 17.802 28.576 16.6931 28.576L16.6932 28.5759Z" fill="white"/>
<path fill-rule="evenodd" clip-rule="evenodd" d="M13.4441 20.3146C13.4441 22.4283 15.1524 24.1418 17.2596 24.1418C17.8258 24.1418 18.3632 24.0181 18.8464 23.7962L19.626 23.317L25.0779 19.9662C25.4652 19.6765 25.8796 19.4212 26.3166 19.2048C27.38 18.6784 28.5773 18.3826 29.8434 18.3826C34.2503 18.3826 37.8229 21.9662 37.8229 26.3867C37.8229 28.8249 36.736 31.0085 35.0217 32.4766C29.2732 37.3995 20.0902 43.1362 13.6582 47.728C13.4652 47.8442 13.3359 48.0561 13.3359 48.2984C13.3359 48.6655 13.6326 48.9631 13.9986 48.9631C21.868 48.8696 25.8027 48.8229 25.8027 48.8229C32.317 48.7406 37.5816 46.6522 41.5967 42.5576C47.855 36.4869 50.7258 29.5039 50.2091 21.6089C49.4858 14.9951 45.5592 8.55919 38.4314 2.55037C38.1489 2.28991 37.8716 2.09766 37.4753 2.09766C37.2513 2.09766 37.0433 2.16642 36.8712 2.28403L36.8692 2.28544L20.4475 13.5065L15.198 17.0935C14.1429 17.7744 13.4442 18.9626 13.4442 20.3145L13.4441 20.3146Z" fill="white"/>
<path d="M71.2757 19.4519H76.0725C76.0021 15.2274 72.5386 12.3079 67.2703 12.3079C62.0832 12.3079 58.2837 15.1785 58.3108 19.4899C58.3 22.9858 60.7553 24.992 64.7553 25.9543L67.3299 26.6013C69.9045 27.2265 71.3353 27.9659 71.3462 29.5644C71.3354 31.3041 69.6985 32.484 67.1564 32.484C64.5548 32.484 62.6848 31.2824 62.5222 28.9065H57.6875C57.8121 34.0389 61.4762 36.6921 67.2106 36.6921C72.9885 36.6921 76.3815 33.9247 76.3924 29.5807C76.3815 25.6281 73.4167 23.5295 69.3028 22.6052L67.1782 22.0942C65.1239 21.6212 63.4003 20.8546 63.4383 19.1528C63.4383 17.6251 64.7879 16.4997 67.2378 16.4997C69.628 16.4997 71.0915 17.587 71.2758 19.4519L71.2757 19.4519Z" fill="white"/>
<path d="M75.7734 12.6287L84.3968 27.966V36.355H89.3617V27.966L97.9905 12.6287H92.3915L86.9985 22.8499H86.7654L81.3724 12.6287H75.7734Z" fill="white"/>
<path d="M110.592 19.4519H115.389C115.318 15.2274 111.855 12.3079 106.587 12.3079C101.4 12.3079 97.6001 15.1785 97.6272 19.4899C97.6164 22.9858 100.072 24.992 104.072 25.9543L106.646 26.6013C109.221 27.2265 110.652 27.9659 110.663 29.5644C110.652 31.3041 109.015 32.484 106.473 32.484C103.871 32.484 102.001 31.2824 101.839 28.9065H97.0039C97.1285 34.0389 100.793 36.6921 106.527 36.6921C112.305 36.6921 115.698 33.9247 115.709 29.5807C115.698 25.6281 112.733 23.5295 108.619 22.6052L106.495 22.0942C104.44 21.6212 102.717 20.8546 102.755 19.1528C102.755 17.6251 104.104 16.4997 106.554 16.4997C108.944 16.4997 110.408 17.587 110.592 19.4519L110.592 19.4519Z" fill="white"/>
<path d="M127.19 36.355C134.398 36.355 138.762 31.8859 138.762 24.4701C138.762 17.0814 134.398 12.6287 127.26 12.6287H118.805V36.355H127.19V36.355ZM123.807 32.0599V16.9292H126.994C131.428 16.9292 133.775 19.1964 133.775 24.4701C133.775 29.7656 131.428 32.0599 126.984 32.0599H123.807Z" fill="white"/>
<path d="M163.002 20.9361C162.346 15.4558 158.211 12.3079 152.736 12.3079C146.492 12.3079 141.723 16.7334 141.723 24.4918C141.723 32.2284 146.411 36.6812 152.736 36.6812C158.801 36.6812 162.46 32.6362 163.002 28.2704L157.945 28.2486C157.474 30.7822 155.484 32.2447 152.818 32.2447C149.23 32.2447 146.79 29.5644 146.79 24.4918C146.79 19.5552 149.192 16.7443 152.856 16.7443C155.593 16.7443 157.566 18.3319 157.945 20.9361H163.002V20.9361Z" fill="white"/>
</svg>
