<svg width="45" height="45" fill="none" xmlns="http://www.w3.org/2000/svg"><path d="M34.466 8.08 24.401 4.31c-1.043-.384-2.744-.384-3.788 0L10.55 8.08c-1.94.732-3.514 3.001-3.514 5.069V27.97c0 1.483.97 3.44 2.16 4.32l10.064 7.52c1.775 1.336 4.685 1.336 6.46 0l10.065-7.52c1.19-.897 2.16-2.837 2.16-4.32V13.15c.017-2.068-1.556-4.337-3.478-5.07Zm-5.6 10.248-7.868 7.869a1.357 1.357 0 0 1-.97.402c-.348 0-.695-.128-.97-.402l-2.928-2.965a1.38 1.38 0 0 1 0-1.94 1.38 1.38 0 0 1 1.94 0l1.976 1.977 6.9-6.9a1.38 1.38 0 0 1 1.939 0c.53.531.53 1.428-.019 1.959Z" fill="#fff"/></svg>