<svg width="45" height="45" fill="none" xmlns="http://www.w3.org/2000/svg"><path fill-rule="evenodd" clip-rule="evenodd" d="M24.199 17.418c0-2.843 3.55-4.604 5.771-2.384.994.994 1.264 2.421.683 3.756-1.15 2.644-4.983 2.644-6.133 0-.138-.316-.321-.965-.321-1.372Zm-7.623.14c-3.16 0-4.798.117-7.006 2.313-1.21 1.202-1.995 2.878-2.478 4.51-1.05 3.547-.245 2.544 4.678 2.136.538-.044 1.305-.206 1.841-.206 0 .935-.062 1.674.51 2.243l2.4 2.4c.471.446 1.357.44 2.172.44l-.205 1.841c-.056.577-.522 4.324-.464 4.54.054.207.37.536.528.536 1.8 0 5.148-1.425 6.547-2.84 2.196-2.221 2.347-3.815 2.347-7.042.282-.075 1.832-1.373 2.101-1.64l.946-.889c.176-.213.224-.286.429-.488.508-.504.858-.97 1.307-1.517.307-.372.522-.704.813-1.093 1.363-1.82 2.45-4.017 3.366-6.092 1.145-2.594 1.908-5.41 1.908-8.327 0-1.697-.205-1.694-2.259-1.694-1.472 0-4.054.563-5.466 1.099-.271.103-.472.162-.737.25-.439.147-.933.336-1.373.533l-1.318.588c-2.181.973-5.76 3.13-7.465 4.817-.181.18-.311.314-.493.495-.718.718-2.149 2.181-2.629 3.088Z" fill="#fff"/><path fill-rule="evenodd" clip-rule="evenodd" d="M7.824 37.181c2.065 0 6.663-.444 7.994-1.959.494-.562 1.645-2.7.688-2.7-.213 0-.356.35-1.016.538-1.197.34-2.157.44-3.107-.508l-.07-.072c-1.488-1.594.17-3.782.17-4.051 0-.742-1.906.092-2.662.726-.526.441-.975 1.355-1.192 2.126a23.006 23.006 0 0 0-.805 5.9Z" fill="#fff"/></svg>