<svg width="45" height="45" fill="none" xmlns="http://www.w3.org/2000/svg"><path d="M9.687 27.99a7.318 7.318 0 0 0-7.32 7.32c0 1.372.384 2.671 1.062 3.77a7.264 7.264 0 0 0 6.258 3.55 7.265 7.265 0 0 0 6.258-3.55 7.176 7.176 0 0 0 1.062-3.77 7.318 7.318 0 0 0-7.32-7.32Zm3.605 6.716L9.394 38.31a1.396 1.396 0 0 1-.933.366c-.348 0-.695-.128-.97-.403L5.68 36.462a1.38 1.38 0 0 1 0-1.94 1.38 1.38 0 0 1 1.94 0l.879.88 2.928-2.71a1.382 1.382 0 0 1 1.94.074 1.382 1.382 0 0 1-.074 1.94ZM39.883 23.415h-4.575a3.67 3.67 0 0 0-3.66 3.66 3.67 3.67 0 0 0 3.66 3.66h4.575a.906.906 0 0 0 .915-.915v-5.49a.906.906 0 0 0-.915-.915ZM30.789 10.422c.549.531.091 1.354-.677 1.354l-15.152-.018c-.879 0-1.318-1.061-.696-1.683l3.203-3.221a6.947 6.947 0 0 1 9.79 0l3.459 3.495.073.073Z" fill="#fff"/><path d="M40.558 34.688c-1.116 3.77-4.337 6.111-8.729 6.111H19.935c-.714 0-1.171-.786-.879-1.445.55-1.281.897-2.727.897-4.044 0-5.545-4.52-10.065-10.065-10.065-1.39 0-2.745.293-3.989.842-.677.293-1.5-.165-1.5-.897V22.5c0-4.977 3-8.454 7.667-9.04.457-.073.951-.11 1.464-.11h18.3c.475 0 .933.018 1.372.092 3.696.42 6.368 2.671 7.356 6.02a.927.927 0 0 1-.878 1.208h-4.19c-3.972 0-7.12 3.623-6.26 7.74.605 3.002 3.386 5.07 6.442 5.07h4.008c.64 0 1.061.622.878 1.208Z" fill="#fff"/></svg>